<?xml version="1.0" standalone="no"?>
<!DOCTYPE svg PUBLIC "-//W3C//DTD SVG 1.1//EN" "http://www.w3.org/Graphics/SVG/1.1/DTD/svg11.dtd" >
<svg xmlns="http://www.w3.org/2000/svg" xmlns:xlink="http://www.w3.org/1999/xlink" version="1.1">
<metadata></metadata>
<defs>
<font id="caledobold" horiz-adv-x="764" >
<font-face units-per-em="2048" ascent="1638" descent="-410" />
<missing-glyph horiz-adv-x="460" />
<glyph horiz-adv-x="0" />
<glyph horiz-adv-x="682" />
<glyph unicode=" "  horiz-adv-x="460" />
<glyph unicode="&#x09;" horiz-adv-x="460" />
<glyph unicode="&#xa0;" horiz-adv-x="460" />
<glyph unicode="!" horiz-adv-x="324" d="M102 0v104h106v-104h-106zM104 1856h156l-38 -1602h-84z" />
<glyph unicode="&#x22;" horiz-adv-x="534" d="M74 1510l106 322h142l-164 -322h-84zM274 1510l106 322h142l-164 -322h-84z" />
<glyph unicode="#" horiz-adv-x="1506" d="M56 410l32 128h1262l-30 -128h-1264zM166 892l30 128h1264l-32 -128h-1262zM268 0l346 1432h146l-348 -1432h-144zM766 0l348 1432h146l-348 -1432h-146z" />
<glyph unicode="$" horiz-adv-x="790" d="M90 454v34h154q1 -200 14.5 -294.5t45 -130t98.5 -35.5q53 0 92 34t57 86.5t29.5 115t10.5 119t-1 99.5q-5 77 -25.5 145t-62 139t-87.5 132.5t-123 153.5q-167 202 -190 420q-5 30 -2.5 70.5t7 83.5t21.5 86.5t40.5 79.5t64.5 63.5t93 38.5v158h130v-156 q242 -38 242 -432v-72h-154v40q-1 121 -5 197t-12.5 131t-25.5 82t-40.5 38.5t-60.5 11.5q-51 0 -88 -21t-54.5 -54.5t-28.5 -75t-9.5 -82t2.5 -75.5q11 -168 94 -294q36 -51 94 -117t103 -119.5t91.5 -120.5t79.5 -149.5t48 -177.5q9 -61 9.5 -123.5t-7.5 -125.5 t-29.5 -119t-54 -101.5t-82.5 -75.5t-112 -39v-130h-130v132q-123 22 -179.5 128.5t-56.5 301.5z" />
<glyph unicode="%" horiz-adv-x="1084" d="M16 1590q0 105 74.5 179.5t179.5 74.5t179.5 -74.5t74.5 -179.5t-74.5 -179.5t-179.5 -74.5t-179.5 74.5t-74.5 179.5zM102 0l732 1842h116l-736 -1842h-112zM106 1590q0 -68 48 -116t116 -48t116 48t48 116t-48 116t-116 48t-116 -48t-48 -116zM538 256 q0 105 74.5 179.5t179.5 74.5t179.5 -74.5t74.5 -179.5t-74.5 -179.5t-179.5 -74.5t-179.5 74.5t-74.5 179.5zM628 256q0 -68 48 -116t116 -48t116 48t48 116t-48 116t-116 48t-116 -48t-48 -116z" />
<glyph unicode="&#x26;" horiz-adv-x="864" d="M164 228v566q0 88 76 144q74 56 120 56q-14 0 -35.5 5.5t-50 21t-52.5 38.5t-41 62t-17 87v420q0 126 83.5 184t226.5 58q142 0 227 -52.5t85 -163.5v-22h-134q0 85 -49.5 139.5t-128.5 54.5q-89 0 -133.5 -65t-44.5 -155v-422q0 -48 20 -74.5t64 -49.5q31 -13 208 -60 q80 -26 139 -80t59 -118v-562q0 -136 16 -174q21 -36 96 -36v-28q-110 0 -147.5 18t-56.5 86l-8 -12q-55 -98 -212 -98q-310 0 -310 232zM296 204q0 -184 178 -184q86 0 132.5 55.5t45.5 166.5v536q0 87 -49 142.5t-129 55.5q-75 0 -126.5 -60.5t-51.5 -141.5v-570z" />
<glyph unicode="'" horiz-adv-x="376" d="M70 1596l122 270h136l-144 -270h-114z" />
<glyph unicode="(" horiz-adv-x="488" d="M102 884q0 510 70 794q27 114 78 180q47 61 93.5 80.5t122.5 19.5l-10 -30q-120 0 -162 -208q-36 -177 -36 -820q0 -390 2 -454q15 -484 152 -484v-26q-41 0 -72.5 8.5t-65 33t-58 67.5t-47 114.5t-36.5 170t-22.5 238.5t-8.5 316z" />
<glyph unicode=")" horiz-adv-x="488" d="M102 1958q76 0 122.5 -19.5t93.5 -80.5q51 -66 78 -180q70 -284 70 -794q0 -176 -8.5 -316t-22.5 -238.5t-36.5 -170t-47 -114.5t-58 -67.5t-65 -33t-72.5 -8.5v26q134 0 152 484q2 64 2 454q0 627 -36 820q-45 208 -162 208z" />
<glyph unicode="*" horiz-adv-x="528" d="M102 1282v72h422v-72h-422zM174 1154l212 364l64 -36l-210 -364zM174 1482l66 36l210 -364l-64 -36z" />
<glyph unicode="+" horiz-adv-x="894" d="M56 486v126h774v-126h-774zM380 162v774h126v-774h-126z" />
<glyph unicode="," horiz-adv-x="368" d="M58 -148l150 224h108l-144 -224h-114z" />
<glyph unicode="-" horiz-adv-x="544" d="M94 566v124h396v-124h-396z" />
<glyph unicode="." horiz-adv-x="286" d="M102 -2v104h106v-104h-106z" />
<glyph unicode="/" horiz-adv-x="786" d="M102 0l532 1904h128l-536 -1904h-124z" />
<glyph unicode="0" horiz-adv-x="776" d="M56 788v280q0 110 1.5 176.5t8 161t19 151t37 121.5t59 100t87 59.5t120.5 24.5h4h2q53 0 97 -15t76.5 -37.5t58 -63t42 -78.5t28.5 -99.5t18 -109.5t9.5 -124t4 -129t0.5 -138v-280q0 -111 -1.5 -177t-8 -161t-19.5 -151t-37.5 -121t-59.5 -100t-88 -58.5t-122 -23.5h-6 q-67 1 -119.5 25t-87 59t-58.5 100t-36.5 121t-19 150.5t-8 160.5t-1.5 176zM210 614q-6 -346 30 -464q18 -66 55.5 -104.5t86.5 -41.5h10q52 0 92 38.5t60 107.5q36 118 30 464v628q6 346 -30 464q-19 67 -58 105t-90 41h-4q-52 0 -92 -38.5t-60 -107.5q-36 -118 -30 -464 v-628z" />
<glyph unicode="1" horiz-adv-x="556" d="M98 1850v8h394v-1858h-160v1850h-234z" />
<glyph unicode="2" horiz-adv-x="744" d="M52 173q-2 159 0 260t10 145q18 116 68.5 220t101 166.5t128.5 152t118 145.5q83 127 94 294q1 35 2.5 75.5t-9.5 81.5t-28.5 74t-54.5 54t-88 21q-37 0 -60.5 -11.5t-40.5 -38t-25.5 -81.5t-12.5 -131t-5 -198v-38h-154v72q0 219 72 327.5t226 108.5q68 0 122 -22.5 t85 -58.5t53.5 -82t29 -93.5t10.5 -92.5t-2 -79q-22 -217 -190 -422q-78 -93 -123 -153.5t-87.5 -131.5t-62.5 -138.5t-25 -144.5q0 -9 -1 -175.5t-1 -178.5v-66h452v-34h-600q0 14 -2 173zM518 0v480h138v-480h-138z" />
<glyph unicode="3" horiz-adv-x="820" d="M96 436v44h154q0 -145 12.5 -240.5t38 -144.5t55 -67t72.5 -18q41 0 70.5 11t49.5 39t31.5 61.5t18 92.5t8.5 117.5t2 150.5q0 72 -1 120.5t-4.5 110.5t-12 102t-21.5 77.5t-34 55.5t-49 18h-130v8h104q46 0 71 29t38 110.5t13 234.5q0 88 -0.5 132t-4.5 114.5t-12.5 106 t-23.5 75t-40 56t-59 16.5h-24q-74 -6 -108 -85t-34 -267v-38h-154v72q0 328 312 328q302 0 302 -416q0 -228 -38 -337t-142 -135q62 -14 104.5 -52t65 -99t31.5 -130t9 -161q0 -53 -0.5 -88t-4 -84.5t-10 -82t-18.5 -73t-29 -66.5t-42.5 -53.5t-58.5 -43t-77 -25.5t-98 -10 q-177 0 -254.5 106t-77.5 328z" />
<glyph unicode="4" horiz-adv-x="834" d="M46 546v10q59 0 128 204q52 166 149.5 578t126.5 520h166q-29 -106 -150.5 -590t-127.5 -504q-67 -208 -104 -208h494v-10h-682zM602 0v1558h164v-1558h-164z" />
<glyph unicode="5" horiz-adv-x="740" d="M100 224v312h152v-334q0 -182 148 -182q152 0 152 182v618q0 182 -152 182h-300v858h270q68 0 112 -4t86.5 -17t66 -37t37.5 -64t14 -98v-24v-26h-156v26q0 50 -5.5 83.5t-24 67t-59 50.5t-103.5 17h-82v-808h192q140 0 193 -61t53 -189v-552q0 -228 -294 -228 q-140 0 -220 58.5t-80 169.5z" />
<glyph unicode="6" horiz-adv-x="758" d="M82 234v1310q0 156 77.5 237t250.5 81q73 0 128 -18.5t85 -45t48.5 -65.5t24 -71.5t6.5 -71.5h-144q-1 48 -3.5 80t-11 68t-24 57t-43 35t-66.5 14q-182 0 -182 -268v-642q3 20 15.5 45t34 50.5t59 43t81.5 17.5q284 0 284 -318v-538q0 -115 -78.5 -177.5t-231.5 -62.5 t-231.5 62.5t-78.5 177.5zM228 210q0 -91 41.5 -147.5t122.5 -56.5q80 0 123 56.5t43 147.5v598q0 36 -1 60.5t-5 59t-13.5 57.5t-24.5 45t-39.5 33t-56.5 11q-52 0 -90.5 -23t-59.5 -63t-30.5 -86t-9.5 -100v-592z" />
<glyph unicode="7" d="M24 1590v26v22q0 73 46.5 124t116.5 73.5t157 22.5h380l-380 -1858h-164l384 1814h-220q-76 0 -117 -55t-41 -139v-30h-162z" />
<glyph unicode="8" horiz-adv-x="760" d="M38 396v140q0 40 0.5 65t3.5 61t8 59t15 53t24 48.5t35.5 39.5t49.5 33.5t65 22t83 12.5q-46 3 -83 12t-65 21.5t-49.5 33t-35.5 39.5t-24 48.5t-15 52.5t-8 60t-3.5 61.5t-0.5 65.5v140q0 42 0.5 68.5t4 64.5t9.5 62.5t17.5 55t28.5 49.5t42 39t57.5 31.5t76 18.5 t96.5 7h6q68 0 121 -12t88 -29.5t59.5 -50t37 -60.5t19 -75.5t8 -80.5t1.5 -88v-140q0 -52 -1 -84t-7 -76.5t-16.5 -72t-31 -59.5t-49.5 -50.5t-72.5 -33t-100.5 -18.5q56 -5 100 -19.5t73 -33.5t49.5 -51t31 -59.5t16.5 -72t7 -76t1 -82.5v-140q0 -42 -0.5 -68.5t-4 -65 t-9.5 -62.5t-18 -54.5t-28.5 -49.5t-42 -39.5t-58 -32t-76.5 -19t-97 -7.5h-6q-94 1 -158.5 24.5t-98.5 55t-51.5 91t-20.5 104.5t-3 123zM192 308q0 -180 30 -234q20 -33 60 -51.5t92 -18.5h4q107 3 148 70q30 54 30 234v314q0 185 -30 230q-20 34 -57.5 55t-84.5 21h-26 q-46 0 -82.5 -21.5t-53.5 -54.5q-30 -45 -30 -230v-314zM192 1236q0 -181 30 -232q34 -66 132 -72h36q100 6 136 72q30 51 30 232v314q0 184 -30 232q-42 71 -148 74h-4q-52 0 -92 -20t-60 -54q-30 -48 -30 -232v-314z" />
<glyph unicode="9" horiz-adv-x="734" d="M62 280v200h144v-174q0 -39 0.5 -58t2 -53t5.5 -51.5t10.5 -42.5t17.5 -38t26.5 -26.5t37 -19t48.5 -5.5q182 0 182 268v790q0 -18 -11.5 -43.5t-33.5 -53t-60.5 -46.5t-84.5 -19q-145 0 -214.5 72t-69.5 246v1v1v1v1v1v1v1v1v1v1v1v1v1v1v1v1v1v1v1v1v1v1v1v1v1v1v1v1v1 v1v1v1v1v1v1v1v1v1v1v1v1v1v1v1v1v1v1v1v1v1v1v1v1v1v1v1v1v1v1v1v1v1v1v1v1v1v1v1v1v1v1v1v1v1v1v1v1v1v1v1v1v1v1v1v1v1v1v1v1v1v1v1v1v1v1v1v1v1v1v1v1v1v1v1v1v1v1v1v1v1v1v1v1v1v1v1v1v1v1v1v1v1v1v1v1v1v1v1v1v1v1v1v1v1v1v1v1v1v1v1v1v1v1v1v1v1v1v1v1v1v1v1v1v1v1v1 v1v1v1v1v1v1v1v1v1v1v1v1v1v1v1v1v1v1v1v1v1v1v1v1v1v1v1v1v1v1v1v1v1v1v1v1v1v1v1v1v1v1v1v1v1v1v1v1v1v1v1v1v1v1v1v1v1v1v1v1v1v1v1v1v1v1v1v1v1v1v1v1v1v1v1v1v1v1v1v1v1v1v1v1v1v1v1v1v1v1v1v1v1v1v1v1v1v1v1v1v1v1v1v1v1v1v1v1v1v1v1v1v1v1v1v1v1v1v1v1v1v1v1v1v1v1v1 v1v1v1v1v1v1v1v1v1v1v1v1v1v1v1v1v1v1v1v1v1v1v1v1v1v1v1v1v1v1v1v1v1v1v1v1v1v1v1v1v1v1v1v1v1v1v1v1v1v1v1v1v1v1v1v1v1v1v1v1v1v1v1v1v1v1v1v1v1v1v1v1v1v1v1v1v1v1v1v1v1v1v1v1v1v1v1v1v1v1v1v1v1v1v1v1v1v1v1v1v1v1v1v1v9q0 115 78.5 177.5t231.5 62.5t231.5 -62.5 t78.5 -177.5v-1310q0 -156 -77.5 -237t-250.5 -81q-77 0 -133 20t-86 48.5t-47 70.5t-21.5 74.5t-4.5 72.5zM206 1190q0 -36 1 -60.5t5 -59t13.5 -57.5t24.5 -45t39.5 -33t56.5 -11q52 0 90.5 23t59.5 63t30.5 86t9.5 100v450q0 91 -41.5 147.5t-122.5 56.5 q-80 0 -123 -56.5t-43 -147.5v-456z" />
<glyph unicode=":" horiz-adv-x="296" d="M102 460v104h120v-104h-120zM102 920v104h120v-104h-120z" />
<glyph unicode=";" horiz-adv-x="368" d="M102 -170l106 162h108l-100 -162h-114zM206 50v198h110v-198h-110z" />
<glyph unicode="&#x3c;" horiz-adv-x="576" d="M30 842v24l506 414v-122l-352 -304l356 -306v-116z" />
<glyph unicode="=" horiz-adv-x="736" d="M62 250v124h774v-124h-774zM62 560v124h774v-124h-774z" />
<glyph unicode="&#x3e;" horiz-adv-x="588" d="M30 432v116l356 306l-354 304v122l508 -414v-24z" />
<glyph unicode="?" horiz-adv-x="738" d="M104 1480v160q0 230 328 230q329 0 332 -232q0 -83 1 -257.5t1 -278.5q0 -59 -30.5 -107.5t-80 -78.5t-107 -47.5t-116.5 -20.5h-14v-634h-142v654h122q226 3 226 190v604q0 184 -192 184q-188 0 -188 -184v-182h-140zM276 0v104h142v-104h-142z" />
<glyph unicode="@" horiz-adv-x="750" d="M68 266v508v514q0 260 316 260q314 0 314 -254v-56v-656q0 -19 -6 -40.5t-21.5 -47t-50 -42t-82.5 -16.5q-47 0 -60 54q-29 -44 -100 -50q-126 0 -126 158v138v144q0 60 37 104t89 44q58 0 92 -38t34 -106v-154v-148q0 -79 7 -108.5t27 -29.5q37 0 40 138v274v296v126 q0 117 -54.5 185.5t-139.5 68.5q-78 0 -134 -77t-56 -185v-512v-512q0 -240 190 -240q90 0 141 65.5t51 196.5h122q0 -156 -76 -220t-238 -64q-171 -2 -243.5 60.5t-72.5 221.5zM308 582q0 -70 15 -96t53 -26q44 0 57 24.5t13 97.5v224v60q0 136 -70 136q-68 0 -68 -138 v-142v-140z" />
<glyph unicode="A" d="M30 0l220 1858h246l228 -1858h-86h-68l-52 440h-282l-50 -440h-24h-132zM236 450h282l-142 1230z" />
<glyph unicode="B" horiz-adv-x="734" d="M102 0v1856h246q40 0 66 -2t59.5 -11t55 -25.5t44 -46.5t35.5 -73.5t21.5 -108t8.5 -147.5q0 -228 -38 -337t-142 -135q62 -13 104.5 -51t65 -99t31.5 -130.5t9 -161.5q0 -207 -12 -286q-28 -177 -143 -224q-46 -18 -107 -18h-304zM258 10h72q41 0 70.5 11.5t49.5 39 t31.5 61.5t18 93t8.5 118t2 151q0 72 -1 120t-4.5 110t-12 102.5t-21.5 78t-34 55.5t-49 18h-130v-958zM258 974h104q46 0 71 29t38 111t13 236q0 88 -0.5 132t-4.5 114t-12.5 105.5t-23.5 75t-40 55.5t-59 16h-86v-874z" />
<glyph unicode="C" horiz-adv-x="840" d="M102 788v280q0 111 1.5 177.5t8 161t19.5 151t37.5 122t59.5 100t88 58.5t122 24q177 0 254.5 -107t77.5 -329v-72h-154v38q-1 194 -19.5 293t-54 133t-104.5 34q-52 0 -92 -38.5t-60 -107.5q-31 -101 -31 -370q0 -45 1 -94v-628q-1 -49 -1 -94q0 -269 31 -370 q20 -69 60 -107.5t92 -38.5q43 0 72.5 18t55 67t38 144.5t12.5 240.5h154v-44q0 -222 -77.5 -328t-254.5 -106q-69 0 -122 23.5t-88 58.5t-59.5 100t-37.5 121t-19.5 151t-8 161t-1.5 177z" />
<glyph unicode="D" horiz-adv-x="772" d="M102 0v1856h280q89 0 142 -44q162 -153 162 -876q0 -454 -36 -634q-31 -147 -79.5 -217t-120.5 -79q-24 -6 -104 -6h-244zM258 10h80q31 1 50 5t39.5 18t32.5 40.5t24.5 73t20.5 115t15 166.5q10 160 10 650q1 45 1 88q0 383 -49 540q-30 88 -63.5 115t-100.5 27h-60 v-1838z" />
<glyph unicode="E" horiz-adv-x="610" d="M102 1856h476v-8h-320v-870h320v-10h-320v-958h320v-10h-474z" />
<glyph unicode="F" horiz-adv-x="660" d="M102 1856h480v-8h-322v-874h322v-6h-322v-968h-156z" />
<glyph unicode="G" horiz-adv-x="788" d="M52 788v280q0 111 1.5 177t8 160.5t19.5 150.5t37.5 121t59.5 99.5t88 58t122 23.5q178 0 255 -105.5t77 -326.5v-72h-154v38q-1 194 -19.5 292t-54 131t-104.5 33q-53 0 -93 -37t-59 -105q-31 -101 -31 -370q0 -45 1 -94v-628q-1 -49 -1 -94q0 -269 31 -370 q20 -69 60 -107.5t92 -38.5q43 0 72.5 18t55 67t38 144.5t12.5 240.5v494h-190v8h344v-546q0 -222 -77.5 -328t-254.5 -106q-69 0 -122 23.5t-88 58.5t-59.5 100t-37.5 121t-19.5 151t-8 161t-1.5 177z" />
<glyph unicode="H" horiz-adv-x="808" d="M102 0v1856h154v-882h290v882h154v-1856h-154v968h-290v-968h-154z" />
<glyph unicode="I" horiz-adv-x="376" d="M102 0v1856h156v-1856h-156z" />
<glyph unicode="J" horiz-adv-x="474" d="M102 0v8q70 0 88 37t18 173v132v1506h156v-1584q0 -56 -6 -98.5t-15.5 -71t-27.5 -48.5t-34 -30.5t-43.5 -16t-48 -6.5t-55.5 -1h-32z" />
<glyph unicode="K" horiz-adv-x="698" d="M102 0v1856h156v-780l260 780h70l-262 -780l354 -1076h-150l-272 856v-856h-156z" />
<glyph unicode="L" horiz-adv-x="548" d="M102 0v1856h156v-1846h220v-10h-376z" />
<glyph unicode="M" horiz-adv-x="802" d="M102 0v1858h156l158 -1722l172 1722h154v-1858h-154v1636l-158 -1626h-4h-22h-4l-142 1626v-1636h-156z" />
<glyph unicode="N" horiz-adv-x="732" d="M102 0v1856l156 2l246 -1080v1078h154v-1856h-154v598l-246 1068v-1666h-156z" />
<glyph unicode="O" horiz-adv-x="922" d="M90 932q0 180 16.5 328t46 248t66 173t81 113.5t86.5 59t86 18.5t86 -18.5t86 -59t80.5 -113.5t65.5 -173t45.5 -248t16.5 -328q0 -215 -24 -383t-61.5 -270t-89 -168.5t-101.5 -91.5t-104 -25t-104 25t-102 91.5t-90 168.5t-62 270t-24 383zM248 894q0 -443 59.5 -666.5 t164.5 -223.5q104 0 160 222t56 668v38v40q0 446 -56 669t-160 223q-105 0 -164.5 -224.5t-59.5 -667.5v-40v-38z" />
<glyph unicode="P" horiz-adv-x="696" d="M102 0v1856h260q51 0 91 -13t67.5 -33.5t47 -54.5t30.5 -68.5t17 -84t7.5 -91t1.5 -99.5q0 -69 -1 -104.5t-6.5 -92t-16.5 -86.5t-32.5 -68t-53 -56t-79 -31.5t-109.5 -13.5h-8h-60v-960h-156zM258 972h58q86 0 118 74q29 67 32 273v137q0 90 -2 144t-8.5 103t-17.5 72.5 t-32.5 42t-49 23.5t-70.5 5h-28v-874z" />
<glyph unicode="Q" horiz-adv-x="912" d="M84 928q0 215 24 383t62.5 270.5t91.5 168.5t104.5 91t107.5 25t107.5 -25t104 -91t90.5 -168.5t62 -270.5t24 -383t-24 -383t-62 -270.5t-90.5 -168.5t-104 -91t-107.5 -25t-107.5 25t-104.5 91t-91.5 168.5t-62.5 270.5t-24 383zM154 18v14q74 0 152.5 -18.5t134 -41 t119 -43t108.5 -23.5q9 -1 18 -1q37 0 66 11q36 13 54.5 36.5t26 40t11.5 31.5h1h9q6 -19 7 -40.5t-5.5 -46.5t-20.5 -46t-43 -36.5t-68 -20.5q-20 -2 -38 -2q-30 0 -57 6q-44 9 -71.5 23.5t-88 50t-109.5 60.5q-49 24 -100 36q-48 10 -75 10h-4h-27zM234 890 q0 -442 64 -666t176 -224q110 0 171 223.5t61 666.5v38v40q0 442 -61.5 666t-170.5 224q-112 0 -176 -225t-64 -665v-40v-38z" />
<glyph unicode="R" horiz-adv-x="666" d="M104 2v1856h240q53 0 91.5 -12t71 -42.5t52 -82t30.5 -132t11 -191.5q0 -216 -46 -315t-156 -117l218 -964h-154l-204 968l2 -968h-156zM258 976h46q32 0 55.5 12t38.5 37.5t24.5 53.5t14 71t6 79.5t1.5 88.5v134q0 167 -15 255.5t-39.5 115.5t-69.5 27h-60z" />
<glyph unicode="S" horiz-adv-x="724" d="M44 424v34h154q1 -199 14.5 -293.5t45 -130.5t98.5 -36q53 0 92 34.5t57 87.5q17 52 29 115q11 58 11 110v9q-1 56 -1 100q-5 77 -25 144.5t-62.5 138.5t-87.5 131.5t-123 153.5q-168 205 -190 422q-4 20 -4 45q0 16 2 34q4 45 10.5 92.5t29 93.5t53.5 82t85 58.5 t122 22.5q154 0 226 -108.5t72 -327.5v-72h-154v38q-1 122 -5 198t-12.5 131t-25.5 81.5t-40.5 38t-60.5 11.5q-51 0 -88 -21t-54.5 -54t-28.5 -74q-10 -36 -10 -72q1 -5 1 -9q2 -40 2 -76q11 -167 94 -294q40 -56 118 -145.5t128.5 -152t101 -166.5t68.5 -220 q10 -65 10 -132t-10 -134t-36 -124.5t-64 -102.5t-97.5 -71t-132.5 -26q-164 0 -238 108t-74 328z" />
<glyph unicode="T" horiz-adv-x="762" d="M36 1848v8h700v-8h-284v-1848h-154v1848h-262z" />
<glyph unicode="U" horiz-adv-x="874" d="M102 390v1472h154v-1614q0 -50 9 -89.5t31 -74.5q20 -36 62 -54q37 -17 90 -16h12q116 3 162 66t46 168v1614h160v-1472q0 -118 -20.5 -194t-67.5 -119.5t-113 -60.5q-62 -16 -156 -16h-11q-101 2 -165 18.5t-109.5 60t-64.5 118.5t-19 193z" />
<glyph unicode="V" horiz-adv-x="740" d="M30 1856h156l194 -1680l186 1680h156l-224 -1856h-234z" />
<glyph unicode="W" horiz-adv-x="806" d="M102 0v1856l156 2v-1634l146 744h2h24l158 -744v1634h156v-1858h-156l-168 902l-162 -902h-156z" />
<glyph unicode="X" horiz-adv-x="670" d="M30 0l200 922l-200 934h156l148 -882l150 882h154l-200 -930l202 -926h-156l-150 874l-148 -874h-156z" />
<glyph unicode="Y" horiz-adv-x="660" d="M30 1856l86 2h70l148 -890l148 890h156l-228 -954l2 -904h-156v902z" />
<glyph unicode="Z" horiz-adv-x="682" d="M102 0l382 1848h-340l-4 8h498l-380 -1846h372v-10h-528z" />
<glyph unicode="[" horiz-adv-x="492" d="M102 -82v1026v1112l376 2v-28h-220v-1030v-1054l220 -2v-26h-376z" />
<glyph unicode="\" horiz-adv-x="732" d="M102 1904h156l530 -1904h-150z" />
<glyph unicode="]" horiz-adv-x="492" d="M102 -56l220 2v1054v1030h-220v28l370 -2l6 2v-2140h-376v26z" />
<glyph unicode="^" horiz-adv-x="676" d="M26 1896l246 174h110l258 -174h-162l-150 124l-136 -124h-166z" />
<glyph unicode="_" horiz-adv-x="722" d="M102 -4v42h604v-42h-604z" />
<glyph unicode="`" horiz-adv-x="304" d="M20 2166h146l114 -172h-94z" />
<glyph unicode="a" d="M30 0l220 1858h246l228 -1858h-86h-68l-52 440h-282l-50 -440h-24h-132zM236 450h282l-142 1230z" />
<glyph unicode="b" horiz-adv-x="734" d="M102 0v1856h246q40 0 66 -2t59.5 -11t55 -25.5t44 -46.5t35.5 -73.5t21.5 -108t8.5 -147.5q0 -228 -38 -337t-142 -135q62 -13 104.5 -51t65 -99t31.5 -130.5t9 -161.5q0 -207 -12 -286q-28 -177 -143 -224q-46 -18 -107 -18h-304zM258 10h72q41 0 70.5 11.5t49.5 39 t31.5 61.5t18 93t8.5 118t2 151q0 72 -1 120t-4.5 110t-12 102.5t-21.5 78t-34 55.5t-49 18h-130v-958zM258 974h104q46 0 71 29t38 111t13 236q0 88 -0.5 132t-4.5 114t-12.5 105.5t-23.5 75t-40 55.5t-59 16h-86v-874z" />
<glyph unicode="c" horiz-adv-x="840" d="M102 788v280q0 111 1.5 177.5t8 161t19.5 151t37.5 122t59.5 100t88 58.5t122 24q177 0 254.5 -107t77.5 -329v-72h-154v38q-1 194 -19.5 293t-54 133t-104.5 34q-52 0 -92 -38.5t-60 -107.5q-31 -101 -31 -370q0 -45 1 -94v-628q-1 -49 -1 -94q0 -269 31 -370 q20 -69 60 -107.5t92 -38.5q43 0 72.5 18t55 67t38 144.5t12.5 240.5h154v-44q0 -222 -77.5 -328t-254.5 -106q-69 0 -122 23.5t-88 58.5t-59.5 100t-37.5 121t-19.5 151t-8 161t-1.5 177z" />
<glyph unicode="d" horiz-adv-x="772" d="M102 0v1856h280q89 0 142 -44q162 -153 162 -876q0 -454 -36 -634q-31 -147 -79.5 -217t-120.5 -79q-24 -6 -104 -6h-244zM258 10h80q31 1 50 5t39.5 18t32.5 40.5t24.5 73t20.5 115t15 166.5q10 160 10 650q1 45 1 88q0 383 -49 540q-30 88 -63.5 115t-100.5 27h-60 v-1838z" />
<glyph unicode="e" horiz-adv-x="656" d="M102 1856h476v-8h-320v-870h320v-10h-320v-958h320v-10h-474z" />
<glyph unicode="f" horiz-adv-x="660" d="M102 1856h480v-8h-322v-874h322v-6h-322v-968h-156z" />
<glyph unicode="g" horiz-adv-x="838" d="M102 788v280q0 111 1.5 177t8 160.5t19.5 150.5t37.5 121t59.5 99.5t88 58t122 23.5q178 0 255 -105.5t77 -326.5v-72h-154v38q-1 194 -19.5 292t-54 131t-104.5 33q-53 0 -93 -37t-59 -105q-31 -101 -31 -370q0 -45 1 -94v-628q-1 -49 -1 -94q0 -269 31 -370 q20 -69 60 -107.5t92 -38.5q43 0 72.5 18t55 67t38 144.5t12.5 240.5v494h-190v8h344v-546q0 -222 -77.5 -328t-254.5 -106q-69 0 -122 23.5t-88 58.5t-59.5 100t-37.5 121t-19.5 151t-8 161t-1.5 177z" />
<glyph unicode="h" horiz-adv-x="808" d="M102 0v1856h154v-882h290v882h154v-1856h-154v968h-290v-968h-154z" />
<glyph unicode="i" horiz-adv-x="376" d="M102 0v1856h156v-1856h-156z" />
<glyph unicode="j" horiz-adv-x="474" d="M102 0v8q70 0 88 37t18 173v132v1506h156v-1584q0 -56 -6 -98.5t-15.5 -71t-27.5 -48.5t-34 -30.5t-43.5 -16t-48 -6.5t-55.5 -1h-32z" />
<glyph unicode="k" horiz-adv-x="698" d="M102 0v1856h156v-780l260 780h70l-262 -780l354 -1076h-150l-272 856v-856h-156z" />
<glyph unicode="l" horiz-adv-x="548" d="M102 0v1856h156v-1846h220v-10h-376z" />
<glyph unicode="m" horiz-adv-x="802" d="M102 0v1858h156l158 -1722l172 1722h154v-1858h-154v1636l-158 -1626h-4h-22h-4l-142 1626v-1636h-156z" />
<glyph unicode="n" horiz-adv-x="732" d="M102 0v1856l156 2l246 -1080v1078h154v-1856h-154v598l-246 1068v-1666h-156z" />
<glyph unicode="o" horiz-adv-x="830" d="M36 932q0 180 16.5 328t46 248t66 173t81 113.5t86.5 59t86 18.5t86 -18.5t86 -59t80.5 -113.5t65.5 -173t45.5 -248t16.5 -328q0 -215 -24 -383t-61.5 -270t-89 -168.5t-101.5 -91.5t-104 -25t-104 25t-102 91.5t-90 168.5t-62 270t-24 383zM194 894q0 -443 59.5 -666.5 t164.5 -223.5q104 0 160 222t56 668v38v40q0 446 -56 669t-160 223q-105 0 -164.5 -224.5t-59.5 -667.5v-40v-38z" />
<glyph unicode="p" horiz-adv-x="696" d="M102 0v1856h260q51 0 91 -13t67.5 -33.5t47 -54.5t30.5 -68.5t17 -84t7.5 -91t1.5 -99.5q0 -69 -1 -104.5t-6.5 -92t-16.5 -86.5t-32.5 -68t-53 -56t-79 -31.5t-109.5 -13.5h-8h-60v-960h-156zM258 972h58q86 0 118 74q29 67 32 273v137q0 90 -2 144t-8.5 103t-17.5 72.5 t-32.5 42t-49 23.5t-70.5 5h-28v-874z" />
<glyph unicode="q" horiz-adv-x="912" d="M84 928q0 215 24 383t62.5 270.5t91.5 168.5t104.5 91t107.5 25t107.5 -25t104 -91t90.5 -168.5t62 -270.5t24 -383t-24 -383t-62 -270.5t-90.5 -168.5t-104 -91t-107.5 -25t-107.5 25t-104.5 91t-91.5 168.5t-62.5 270.5t-24 383zM154 18v14q74 0 152.5 -18.5t134 -41 t119 -43t108.5 -23.5q9 -1 18 -1q37 0 66 11q36 13 54.5 36.5t26 40t11.5 31.5h1h9q6 -19 7 -40.5t-5.5 -46.5t-20.5 -46t-43 -36.5t-68 -20.5q-20 -2 -38 -2q-30 0 -57 6q-44 9 -71.5 23.5t-88 50t-109.5 60.5q-49 24 -100 36q-48 10 -75 10h-4h-27zM234 890 q0 -442 64 -666t176 -224q110 0 171 223.5t61 666.5v38v40q0 442 -61.5 666t-170.5 224q-112 0 -176 -225t-64 -665v-40v-38z" />
<glyph unicode="r" horiz-adv-x="666" d="M104 2v1856h240q53 0 91.5 -12t71 -42.5t52 -82t30.5 -132t11 -191.5q0 -216 -46 -315t-156 -117l218 -964h-154l-204 968l2 -968h-156zM258 976h46q32 0 55.5 12t38.5 37.5t24.5 53.5t14 71t6 79.5t1.5 88.5v134q0 167 -15 255.5t-39.5 115.5t-69.5 27h-60z" />
<glyph unicode="s" horiz-adv-x="770" d="M90 424v34h154q1 -199 14.5 -293.5t45 -130.5t98.5 -36q53 0 92 34.5t57 87.5q17 52 29 115q11 58 11 110v9q-1 56 -1 100q-5 77 -25 144.5t-62.5 138.5t-87.5 131.5t-123 153.5q-168 205 -190 422q-4 20 -4 45q0 16 2 34q4 45 10.5 92.5t29 93.5t53.5 82t85 58.5 t122 22.5q154 0 226 -108.5t72 -327.5v-72h-154v38q-1 122 -5 198t-12.5 131t-25.5 81.5t-40.5 38t-60.5 11.5q-51 0 -88 -21t-54.5 -54t-28.5 -74q-10 -36 -10 -72q1 -5 1 -9q2 -40 2 -76q11 -167 94 -294q40 -56 118 -145.5t128.5 -152t101 -166.5t68.5 -220 q10 -65 10 -132t-10 -134t-36 -124.5t-64 -102.5t-97.5 -71t-132.5 -26q-164 0 -238 108t-74 328z" />
<glyph unicode="t" horiz-adv-x="762" d="M36 1848v8h700v-8h-284v-1848h-154v1848h-262z" />
<glyph unicode="u" horiz-adv-x="874" d="M102 390v1472h154v-1614q0 -50 9 -89.5t31 -74.5q20 -36 62 -54q37 -17 90 -16h12q116 3 162 66t46 168v1614h160v-1472q0 -118 -20.5 -194t-67.5 -119.5t-113 -60.5q-62 -16 -156 -16h-11q-101 2 -165 18.5t-109.5 60t-64.5 118.5t-19 193z" />
<glyph unicode="v" horiz-adv-x="740" d="M30 1856h156l194 -1680l186 1680h156l-224 -1856h-234z" />
<glyph unicode="w" horiz-adv-x="830" d="M102 0v1856l156 2v-1634l146 744h2h24l158 -744v1634h156v-1858h-156l-168 902l-162 -902h-156z" />
<glyph unicode="x" horiz-adv-x="670" d="M30 0l200 922l-200 934h156l148 -882l150 882h154l-200 -930l202 -926h-156l-150 874l-148 -874h-156z" />
<glyph unicode="y" horiz-adv-x="660" d="M30 1856l86 2h70l148 -890l148 890h156l-228 -954l2 -904h-156v902z" />
<glyph unicode="z" horiz-adv-x="682" d="M102 0l382 1848h-340l-4 8h498l-380 -1846h372v-10h-528z" />
<glyph unicode="{" horiz-adv-x="620" d="M112 908v14q120 27 120 74q0 181 10 325.5t27 245.5t43 174.5t55 116t67 66.5t73.5 30t80.5 2v-28q-70 7 -109.5 -57t-62.5 -191q-24 -125 -28 -410v-274q0 -35 -27 -57.5t-67 -22.5q36 0 65 -30.5t29 -63.5q0 -238 4 -386q18 -474 148 -474v-26q-47 0 -82.5 12t-72.5 44 t-63 95t-47.5 158t-32 241t-10.5 336q0 56 -120 86z" />
<glyph unicode="|" horiz-adv-x="288" d="M102 0v1858h110v-1858h-110z" />
<glyph unicode="}" horiz-adv-x="616" d="M112 1928v28q45 4 80.5 -2t73.5 -30t67 -66.5t55 -116t43 -174.5t27 -245.5t10 -325.5q0 -47 120 -74v-14q-120 -30 -120 -86q0 -227 -16.5 -391t-42.5 -258.5t-68 -149t-84 -71t-99 -16.5v26q133 0 148 474q6 111 6 386q0 33 29 63.5t65 30.5q-40 0 -67 22.5t-27 57.5 v274q-4 285 -28 410q-25 127 -64 191t-108 57z" />
<glyph unicode="~" horiz-adv-x="540" d="M22 578q0 55 38.5 94.5t93.5 39.5q45 0 73.5 -17t38.5 -37t27.5 -37t42.5 -17q22 0 37 17.5t20 35.5t5 33h108q0 -64 -37.5 -109t-98.5 -45q-31 0 -54 11t-36 26.5t-24.5 31t-26 26.5t-33.5 11q-25 0 -41.5 -22t-16.5 -42h-116z" />
<glyph horiz-adv-x="102" />
<glyph unicode="&#xa1;" horiz-adv-x="324" d="M102 1758v104h106v-104h-106zM104 6l34 1602h84l38 -1602h-156z" />
<glyph unicode="&#xa2;" horiz-adv-x="800" d="M84 788v280q0 111 1.5 177.5t8 161t19.5 151t37.5 122t59.5 100t88 58.5t122 24q177 0 254.5 -107t77.5 -329v-72h-154v38q-1 194 -19.5 293t-54 133t-104.5 34q-52 0 -92 -38.5t-60 -107.5q-36 -118 -30 -464v-628q-6 -346 30 -464q20 -69 60 -107.5t92 -38.5 q43 0 72.5 18t55 67t38 144.5t12.5 240.5h154v-44q0 -222 -77.5 -328t-254.5 -106q-69 0 -122 23.5t-88 58.5t-59.5 100t-37.5 121t-19.5 151t-8 161t-1.5 177zM382 0h90v-168h-90v168zM382 1858v150h90v-150h-90z" />
<glyph unicode="&#xa3;" horiz-adv-x="956" d="M102 0q0 2 11 24.5t33 75.5t44 118q41 118 76 284q41 179 67.5 483.5t26.5 662.5q0 105 112 158q107 58 246 58q64 0 122.5 -10.5t115 -34t90.5 -70t34 -109.5v-10v-50h-154v40q0 83 -61 150.5t-147 67.5q-90 0 -149 -62.5t-59 -151.5q0 -360 -28 -680q-27 -304 -66 -470 q-42 -192 -124 -412l-36 -62h-4h-2h-6h-2h-2h-2h-4h-2h-2h-4h-2h-2h-4h-2h-2h-2h-6h-2h-4h-4h-4h-2h-4h-4h-4h-4h-4h-4h-4h-2h-6h-6h-2h-6h-6h-4h-4h-24zM214 0l24 26h488q82 0 129 64.5t47 155.5v30h156v-50q0 -59 -21 -102t-52 -66t-79 -36t-88 -16.5t-94 -3.5h-164z M222 1098v22h480v-22h-480z" />
<glyph unicode="&#xa4;" horiz-adv-x="498" d="M102 606l124 114l30 -28l-64 -86h-82h-8zM102 942h8h82l72 -100l-32 -18zM180 777.5q0 47.5 32 80.5q33 33 80 33t80 -33q38 -33 38 -80.5t-38 -81.5q-33 -33 -80 -33t-80 33q-32 34 -32 81.5zM234 764.5q11 -33.5 41 -43t61 14.5q20 20 18.5 45t-19.5 40t-40.5 19 t-44.5 -18q-27 -24 -16 -57.5zM330 696l32 24l124 -114h-4h-86zM330 850q17 -3 23.5 -6t5 -6t-1.5 -6.5t3 -7.5l126 118h-4h-86z" />
<glyph unicode="&#xa5;" horiz-adv-x="528" d="M30 1856l86 2h70l148 -890l148 890h156l-228 -954l2 -904h-156v902zM146 720v60h372v-60h-372zM146 874v56h372v-56h-372z" />
<glyph unicode="&#xa6;" horiz-adv-x="266" d="M102 0v842h80v-842h-80zM102 1016v842h80v-842h-80z" />
<glyph unicode="&#xa7;" horiz-adv-x="974" d="M102 -116h214q144 0 192 130q26 81 36 184q6 65 6 204v44v32q0 145 -84 254q-59 80 -114 130q-3 0 -34 28q-60 63 -96 112q-100 140 -108 320q-9 222 63 314t219 92q302 0 284 -486l-94 10q-42 94 -76 298q-8 70 -38.5 119.5t-75.5 50.5q-90 0 -110 -58q-16 -61 -16 -262 v-32q0 -143 74 -238q67 -83 112 -128l16 -10l26 -26q61 -65 78 -86q109 -142 116 -348q0 -253 -37 -397t-110.5 -202.5t-198.5 -58.5h-96h-148v10zM516 38v10h212q147 0 190 132q15 39 21 58t11.5 51t7.5 73q3 33 4 60t1 43t-0.5 47t-0.5 56v42v30q0 205 -198 388 q-10 10 -30 28q-4 4 -18.5 17.5t-17.5 16.5t-13.5 14t-16 18t-15 19t-19.5 27q-99 143 -106 318q-4 115 13 194.5t54.5 126t89.5 67t125 20.5q303 0 282 -488h-152v130q0 40 -6 142q-9 90 -38.5 149t-85.5 59q-92 0 -110 -56q-18 -51 -18 -264v-34q0 -128 72 -236 q61 -75 118 -130l10 -10l26 -26q16 -13 29.5 -27t20.5 -22t30 -37q50 -55 82 -145t32 -201q0 -254 -36 -398.5t-108.5 -203t-197.5 -58.5h-96h-148z" />
<glyph unicode="&#xa8;" horiz-adv-x="482" d="M24 1984q0 27 19.5 46.5t46.5 19.5t46.5 -19.5t19.5 -46.5t-19.5 -46.5t-46.5 -19.5t-46.5 19.5t-19.5 46.5zM308 1984q0 27 19.5 46.5t46.5 19.5t46.5 -19.5t19.5 -46.5t-19.5 -46.5t-46.5 -19.5t-46.5 19.5t-19.5 46.5z" />
<glyph unicode="&#xa9;" horiz-adv-x="800" d="M102 1082q0 189 98 284q114 104 304 104q93 0 165 -20t125 -78q39 -32 61.5 -112t22 -159t-13.5 -143q-16 -80 -52.5 -125t-95.5 -69q-55 -19 -101 -25.5t-131 -6.5q-84 0 -132 10q-250 42 -250 340zM276 1102q0 -167 42 -260q47 -104 174 -104q89 0 129.5 25t60.5 101 q24 84 24 244q0 162 -40 254q-42 104 -162 104q-101 0 -164.5 -100t-63.5 -264zM390 1054q0 -100 18 -166q11 -43 28.5 -55t55.5 -15q27 0 41.5 4.5t28.5 21.5q28 28 28 104v12h-46q0 -106 -24 -130q-14 -14 -38 -7.5t-36 41.5q-12 33 -12 138l4 80q0 144 4 208q12 84 56 84 q21 0 33.5 -36t12.5 -100v-12h46q0 68 -25 109t-65 41q-71 0 -88 -78q-22 -73 -22 -244z" />
<glyph unicode="&#xaa;" horiz-adv-x="378" d="M102 1178v52v52q0 52 86 52q33 0 54.5 -13.5t21.5 -38.5l2 -54v-56q0 -38 0.5 -42t9.5 -4q17 2 20 50h32q0 -56 -52 -56q-31 0 -34 16q-18 -18 -54 -18q-86 0 -86 60zM138 1172q0 -46 50 -46q50 3 50 46v82v22q0 22 -14 35t-36 13q-20 0 -35 -15t-15 -33v-54v-50z" />
<glyph unicode="&#xab;" horiz-adv-x="496" d="M100 740v118l166 134v-30v-80l-128 -86l128 -72v-84v-28zM314 740v118l166 134v-30v-80l-128 -86l128 -72v-84v-28z" />
<glyph unicode="&#xac;" horiz-adv-x="530" d="M102 630v62h398v-62h-398zM446 430v262h80v-262h-80z" />
<glyph unicode="&#xad;" horiz-adv-x="438" d="M102 578v54h304v-54h-304z" />
<glyph unicode="&#xae;" horiz-adv-x="800" d="M102 1082q0 189 98 284q114 104 304 104q93 0 165 -20t125 -78q39 -32 61.5 -112t22 -159t-13.5 -143q-16 -80 -52.5 -125t-95.5 -69q-55 -19 -101 -25.5t-131 -6.5q-84 0 -132 10q-250 42 -250 340zM276 1102q0 -167 42 -260q47 -104 174 -104q89 0 129.5 25t60.5 101 q24 84 24 244q0 162 -40 254q-42 104 -162 104q-101 0 -164.5 -100t-63.5 -264zM426 828h48l-2 288l62 -288h46l-64 288q2 0 14 6q46 18 46 120q0 142 -78 142h-72v-556zM472 1120l2 262h18q36 0 36 -124v-72q0 -40 -8 -48q0 -7 -8 -10q-5 -8 -18 -8h-22z" />
<glyph unicode="&#xaf;" horiz-adv-x="438" d="M102 1554v58h304v-58h-304z" />
<glyph unicode="&#xb0;" horiz-adv-x="432" d="M105 1552q0 53 39 92t92 39t92 -39t39 -92t-39 -92t-92 -39t-92 39t-39 92zM164.5 1564q-2.5 -23 9.5 -40.5t30 -29t40.5 -9.5t39.5 19q19 19 21.5 42t-9 41t-29 30t-40.5 9.5t-41 -20.5q-19 -19 -21.5 -42z" />
<glyph unicode="&#xb1;" horiz-adv-x="700" d="M62 122v124h774v-124h-774zM62 766v126h774v-126h-774zM386 442v774h126v-774h-126z" />
<glyph unicode="&#xb2;" horiz-adv-x="378" d="M98 808q42 54 70 114q37 72 65.5 174.5t28.5 189.5q0 58 -54 58q-23 0 -39.5 -18.5t-16.5 -43.5v-8h-48v12v2q0 32 31 50t73 18t69 -17.5t27 -54.5q0 -154 -70 -312q-35 -75 -78 -154h148v-10h-4h-2h-2h-4h-2h-2h-2h-4h-2h-2h-4h-2h-2h-4h-2h-2h-2h-4h-2h-2h-4h-2h-2h-4 h-2h-2h-2h-4h-2h-2h-4h-2h-2h-4h-2h-2h-2h-4h-2h-2h-4h-2h-2h-4h-2h-2h-2h-4h-2h-2h-4h-2h-2h-4h-2h-2h-2h-4h-2h-2h-4h-2h-2h-4h-2h-2h-2h-4h-2h-2h-4h-2h-2h-4h-2h-10z" />
<glyph unicode="&#xb3;" horiz-adv-x="378" d="M98 870v70h46v-76q0 -54 56 -54t56 54v8v170q0 54 -54 54v8q54 0 54 54v122v6q0 24 -15.5 43t-38.5 19t-34.5 -19t-11.5 -47v-12h-50v10v8q0 29 28 48.5t68 19.5t71 -18t31 -48v-122q0 -46 -76 -70q76 -10 76 -70v-158q0 -31 -31 -49.5t-71 -18.5q-42 0 -73 18.5 t-31 49.5z" />
<glyph unicode="&#xb4;" horiz-adv-x="344" d="M42 1994l114 172h146l-166 -172h-94z" />
<glyph unicode="&#xb5;" horiz-adv-x="758" d="M102 0v678q0 154 2 450q6 450 6 452h142v-14q0 -14 -0.5 -43.5t-1 -68.5t-1 -98.5t-1.5 -123.5q-6 -342 -6 -348q0 -82 59.5 -142t148.5 -60q94 0 151 55t57 141q0 120 2 352q6 348 6 350h158v-16t-0.5 -46t-1 -71.5t-1 -102t-1.5 -128.5q-4 -236 -4 -360 q-3 -216 -366 -216q-116 -6 -208 68v-64v-598v-46h-140z" />
<glyph unicode="&#xb6;" horiz-adv-x="670" d="M102 1384q0 90 10.5 168t34.5 149.5t70.5 113t110.5 41.5h218v-1856h-132v904h-120q-89 0 -140.5 116t-51.5 364zM224 1466q2 -38 2 -82v-34q0 -108 4 -182q3 -68 10 -94q28 -90 45 -114q22 -30 53 -30h76v892h-102q-39 0 -61 -51t-27 -139v-166zM634 0v1856h120v-1856 h-120z" />
<glyph unicode="&#xb7;" horiz-adv-x="302" d="M115 808.5q14 36.5 46.5 45.5t60.5 -18q20 -21 18.5 -47t-19 -41.5t-41.5 -20t-50 18.5q-29 26 -15 62.5z" />
<glyph unicode="&#xb8;" horiz-adv-x="400" d="M102 -98h84q0 -66 54 -66q16 0 27.5 13.5t15 33t1.5 39t-16 33t-36 13.5h-80l74 94h56l12 2l-52 -72q33 0 58.5 -10t37 -24.5t17 -26t5.5 -17.5q0 -102 -120 -102q-138 0 -138 76v14z" />
<glyph unicode="&#xb9;" horiz-adv-x="306" d="M98 1250l72 80h48v-546h-48v518l-48 -52h-24z" />
<glyph unicode="&#xba;" horiz-adv-x="414" d="M75 1538.5q0 62.5 45 107.5q46 46 109.5 46t108.5 -46q46 -45 46 -107.5t-46 -108.5q-45 -45 -108.5 -45t-109.5 45q-45 46 -45 108.5zM150 1521q17 -46 58.5 -57.5t79.5 20.5q24 24 24 59t-24 59q-22 22 -58 22t-60 -22q-37 -35 -20 -81z" />
<glyph unicode="&#xbb;" horiz-adv-x="496" d="M104 614v28v82l128 84l-128 74v82v30l166 -128v-120zM314 614v28v82l128 84l-128 74v82v30l166 -128v-120z" />
<glyph unicode="&#xbc;" horiz-adv-x="402" d="M102 1208l50 48h30v-328h-30v310l-34 -30h-16zM130 606l162 572l24 -4l-160 -568h-26zM216 506v6q14 0 26 32l54 192h32q-8 -26 -20.5 -72.5t-21.5 -82t-10 -37.5q-12 -32 -20 -32h96v-6h-136zM328 408v278h34v-278h-34z" />
<glyph unicode="&#xbd;" horiz-adv-x="420" d="M102 1208l50 48h30v-328h-30v310l-34 -30h-16zM130 606l162 572l24 -4l-160 -568h-26zM250 408q110 147 110 286q0 33 -40 36q-15 0 -25.5 -11.5t-10.5 -26.5v-6h-32v8v2q0 39 68 42q66 0 66 -46q0 -64 -26 -128q-33 -96 -74 -148h100v-8h-4h-2h-2h-4h-2h-2h-2h-4h-2h-2 h-6h-6h-2h-2h-2h-6h-2h-4h-4h-4h-4h-2h-6h-2h-6h-2h-6h-4h-4h-4h-6h-6h-20z" />
<glyph unicode="&#xbe;" horiz-adv-x="454" d="M102 970v38h28v-42q0 -30 36 -30q38 0 38 30v4v100q0 32 -34 32v2q34 0 34 34v74q0 15 -9.5 26.5t-24.5 11.5q-32 0 -32 -38v-6h-34v2v6q0 17 20 27.5t46 10.5q24 0 44 -10t20 -26v-72q0 -28 -48 -40q48 -12 48 -40v-94q0 -17 -20 -29.5t-44 -12.5q-26 0 -47 12t-21 30z M198 606l162 572l22 -4l-160 -568h-24zM284 506v6q14 0 26 32l54 192h32q-8 -25 -21 -72t-22.5 -82.5t-10.5 -37.5q-12 -32 -22 -32h100v-6h-136zM396 408v278h30v-278h-30z" />
<glyph unicode="&#xbf;" horiz-adv-x="760" d="M102 762q0 91 77 155.5t189 90.5q36 7 100 10h14v634h152v-656h-132l-34 -2q-97 0 -152.5 -47.5t-55.5 -138.5v-378v-198v-28q0 -184 206 -184q208 0 208 184v260h154v-240q0 -228 -360 -228q-358 0 -364 232v106q0 15 -1 163t-1 265zM528 1762v104h106v-104h-106z" />
<glyph unicode="&#xc0;" d="M30 0l220 1858h246l228 -1858h-86h-68l-52 440h-282l-50 -440h-24h-132zM236 450h282l-142 1230zM252 2308h146l114 -172h-94z" />
<glyph unicode="&#xc1;" d="M30 0h132h24l50 440h282l52 -440h68h86l-228 1858h-246zM236 450l140 1230l142 -1230h-282zM252 2136l114 172h146l-166 -172h-94z" />
<glyph unicode="&#xc2;" d="M30 0l220 1858h246l228 -1858h-86h-68l-52 440h-282l-50 -440h-24h-132zM74 2116l246 174h110l258 -174h-162l-150 124l-136 -124h-166zM236 450h282l-142 1230z" />
<glyph unicode="&#xc3;" d="M30 0h132h24l50 440h282l52 -440h68h86l-228 1858h-246zM140 2106q0 55 38.5 94.5t93.5 39.5q45 0 73.5 -17t38.5 -37t27.5 -37t42.5 -17q22 0 37 17.5t20 35.5t5 33h108q0 -64 -37.5 -109t-98.5 -45q-31 0 -54 11t-36 26.5t-24.5 31t-26 26.5t-33.5 11q-25 0 -41.5 -22 t-16.5 -42h-116zM236 450l140 1230l142 -1230h-282z" />
<glyph unicode="&#xc4;" d="M30 0h132h24l50 440h282l52 -440h68h86l-228 1858h-246zM174 2126q0 27 19.5 46.5t46.5 19.5t46.5 -19.5t19.5 -46.5t-19.5 -46.5t-46.5 -19.5t-46.5 19.5t-19.5 46.5zM236 450l140 1230l142 -1230h-282zM458 2126q0 27 19.5 46.5t46.5 19.5t46.5 -19.5t19.5 -46.5 t-19.5 -46.5t-46.5 -19.5t-46.5 19.5t-19.5 46.5z" />
<glyph unicode="&#xc5;" d="M30 0l220 1858h246l228 -1858h-86h-68l-52 440h-282l-50 -440h-24h-132zM128 2050q0 105 74.5 179.5t179.5 74.5t179.5 -74.5t74.5 -179.5t-74.5 -179.5t-179.5 -74.5t-179.5 74.5t-74.5 179.5zM218 2050q0 -68 48 -116t116 -48t116 48t48 116t-48 116t-116 48t-116 -48 t-48 -116zM236 450h282l-142 1230z" />
<glyph unicode="&#xc7;" horiz-adv-x="840" d="M102 786v278q0 111 1.5 177.5t8 161.5t19.5 151.5t37.5 122t59.5 100.5t88 59t122 24q177 0 254.5 -107.5t77.5 -330.5v-72h-154v38q-1 194 -19.5 293t-54 133t-104.5 34q-52 0 -92 -38t-60 -106q-36 -122 -30 -466v-626q-6 -344 30 -466q20 -69 60 -107.5t92 -38.5 q43 0 72.5 18.5t55 67.5t38 144.5t12.5 239.5h154v-44q0 -210 -70.5 -316.5t-227.5 -113.5l-42 -64q54 0 85 -20.5t31 -57.5q0 -56 -33.5 -77t-92.5 -21q-130 0 -130 88v16h82q0 -28 2 -43t13.5 -28t34.5 -13q21 0 35 14t17.5 33.5t0.5 39t-18 33.5t-37 14h-82l68 86 q-62 4 -110 30.5t-80 62.5t-54 100t-33.5 120t-18 148t-7.5 157t-1 172z" />
<glyph unicode="&#xc8;" horiz-adv-x="610" d="M102 1856h476v-8h-320v-870h320v-10h-320v-958h320v-10h-474zM174 2308h146l114 -172h-94z" />
<glyph unicode="&#xc9;" horiz-adv-x="610" d="M102 1856l2 -1856h474v10h-320v958h320v10h-320v870h320v8h-476zM174 2136l114 172h146l-166 -172h-94z" />
<glyph unicode="&#xca;" horiz-adv-x="610" d="M-2 2116l246 174h110l258 -174h-162l-150 124l-136 -124h-166zM102 1856h476v-8h-320v-870h320v-10h-320v-958h320v-10h-474z" />
<glyph unicode="&#xcb;" horiz-adv-x="610" d="M96 2126q0 27 19.5 46.5t46.5 19.5t46.5 -19.5t19.5 -46.5t-19.5 -46.5t-46.5 -19.5t-46.5 19.5t-19.5 46.5zM102 1856l2 -1856h474v10h-320v958h320v10h-320v870h320v8h-476zM380 2126q0 27 19.5 46.5t46.5 19.5t46.5 -19.5t19.5 -46.5t-19.5 -46.5t-46.5 -19.5 t-46.5 19.5t-19.5 46.5z" />
<glyph unicode="&#xcc;" horiz-adv-x="376" d="M58 2308h146l114 -172h-94zM102 0v1856h156v-1856h-156z" />
<glyph unicode="&#xcd;" horiz-adv-x="376" d="M58 2136l114 172h146l-166 -172h-94zM102 0h156v1856h-156v-1856z" />
<glyph unicode="&#xce;" horiz-adv-x="376" d="M-118 2116l246 174h110l258 -174h-162l-150 124l-136 -124h-166zM102 0v1856h156v-1856h-156z" />
<glyph unicode="&#xcf;" horiz-adv-x="376" d="M-20 2126q0 27 19.5 46.5t46.5 19.5t46.5 -19.5t19.5 -46.5t-19.5 -46.5t-46.5 -19.5t-46.5 19.5t-19.5 46.5zM102 0h156v1856h-156v-1856zM264 2126q0 27 19.5 46.5t46.5 19.5t46.5 -19.5t19.5 -46.5t-19.5 -46.5t-46.5 -19.5t-46.5 19.5t-19.5 46.5z" />
<glyph unicode="&#xd0;" horiz-adv-x="612" d="M48 922v66h332v-66h-332zM106 0v1856h134h100q136 -3 202 -54q150 -135 150 -866q0 -326 -20 -511.5t-62 -286.5q-20 -46 -46 -74.5t-61 -42t-68 -17.5t-85 -4h-244zM262 10h36h46q61 0 91.5 25.5t54.5 112.5q46 165 46 798q0 324 -11 499.5t-41 260.5q-29 88 -62 115 t-98 27h-62v-1838z" />
<glyph unicode="&#xd1;" horiz-adv-x="732" d="M102 0h156v1666l246 -1068v-598h154v1856h-154v-1078l-246 1080l-156 -2v-1856zM124 2106q0 55 38.5 94.5t93.5 39.5q45 0 73.5 -17t38.5 -37t27.5 -37t42.5 -17q22 0 37 17.5t20 35.5t5 33h108q0 -64 -37.5 -109t-98.5 -45q-31 0 -54 11t-36 26.5t-24.5 31t-26 26.5 t-33.5 11q-25 0 -41.5 -22t-16.5 -42h-116z" />
<glyph unicode="&#xd2;" horiz-adv-x="922" d="M90 932q0 180 16.5 328t46 248t66 173t81 113.5t86.5 59t86 18.5t86 -18.5t86 -59t80.5 -113.5t65.5 -173t45.5 -248t16.5 -328q0 -215 -24 -383t-61.5 -270t-89 -168.5t-101.5 -91.5t-104 -25t-104 25t-102 91.5t-90 168.5t-62 270t-24 383zM248 894q0 -443 59.5 -666.5 t164.5 -223.5q104 0 160 222t56 668v38v40q0 446 -56 669t-160 223q-105 0 -164.5 -224.5t-59.5 -667.5v-40v-38zM330 2308h146l114 -172h-94z" />
<glyph unicode="&#xd3;" horiz-adv-x="922" d="M90 932q0 -215 24 -383t62 -270t90 -168.5t102 -91.5t104 -25t104 25t101.5 91.5t89 168.5t61.5 270t24 383q0 180 -16.5 328t-45.5 248t-65.5 173t-80.5 113.5t-86 59t-86 18.5t-86 -18.5t-86.5 -59t-81 -113.5t-66 -173t-46 -248t-16.5 -328zM248 894v38v40 q0 443 59.5 667.5t164.5 224.5q104 0 160 -223t56 -669v-40v-38q0 -446 -56 -668t-160 -222q-105 0 -164.5 223.5t-59.5 666.5zM330 2136l114 172h146l-166 -172h-94z" />
<glyph unicode="&#xd4;" horiz-adv-x="922" d="M90 932q0 180 16.5 328t46 248t66 173t81 113.5t86.5 59t86 18.5t86 -18.5t86 -59t80.5 -113.5t65.5 -173t45.5 -248t16.5 -328q0 -215 -24 -383t-61.5 -270t-89 -168.5t-101.5 -91.5t-104 -25t-104 25t-102 91.5t-90 168.5t-62 270t-24 383zM154 2116l246 174h110 l258 -174h-162l-150 124l-136 -124h-166zM248 894q0 -443 59.5 -666.5t164.5 -223.5q104 0 160 222t56 668v38v40q0 446 -56 669t-160 223q-105 0 -164.5 -224.5t-59.5 -667.5v-40v-38z" />
<glyph unicode="&#xd5;" horiz-adv-x="922" d="M90 932q0 -215 24 -383t62 -270t90 -168.5t102 -91.5t104 -25t104 25t101.5 91.5t89 168.5t61.5 270t24 383q0 180 -16.5 328t-45.5 248t-65.5 173t-80.5 113.5t-86 59t-86 18.5t-86 -18.5t-86.5 -59t-81 -113.5t-66 -173t-46 -248t-16.5 -328zM218 2106q0 55 38.5 94.5 t93.5 39.5q45 0 73.5 -17t38.5 -37t27.5 -37t42.5 -17q22 0 37 17.5t20 35.5t5 33h108q0 -64 -37.5 -109t-98.5 -45q-31 0 -54 11t-36 26.5t-24.5 31t-26 26.5t-33.5 11q-25 0 -41.5 -22t-16.5 -42h-116zM248 894v38v40q0 443 59.5 667.5t164.5 224.5q104 0 160 -223 t56 -669v-40v-38q0 -446 -56 -668t-160 -222q-105 0 -164.5 223.5t-59.5 666.5z" />
<glyph unicode="&#xd6;" horiz-adv-x="922" d="M90 932q0 -215 24 -383t62 -270t90 -168.5t102 -91.5t104 -25t104 25t101.5 91.5t89 168.5t61.5 270t24 383q0 180 -16.5 328t-45.5 248t-65.5 173t-80.5 113.5t-86 59t-86 18.5t-86 -18.5t-86.5 -59t-81 -113.5t-66 -173t-46 -248t-16.5 -328zM248 894v38v40 q0 443 59.5 667.5t164.5 224.5q104 0 160 -223t56 -669v-40v-38q0 -446 -56 -668t-160 -222q-105 0 -164.5 223.5t-59.5 666.5zM252 2126q0 27 19.5 46.5t46.5 19.5t46.5 -19.5t19.5 -46.5t-19.5 -46.5t-46.5 -19.5t-46.5 19.5t-19.5 46.5zM536 2126q0 27 19.5 46.5 t46.5 19.5t46.5 -19.5t19.5 -46.5t-19.5 -46.5t-46.5 -19.5t-46.5 19.5t-19.5 46.5z" />
<glyph unicode="&#xd7;" horiz-adv-x="530" d="M30 2l200 258l-200 260h156l148 -248l150 248h154l-200 -260l202 -258h-156l-150 244l-148 -244h-156z" />
<glyph unicode="&#xd8;" horiz-adv-x="776" d="M56 788v280q0 110 1.5 176.5t8 161t19 151t37 121.5t59 100t87 59.5t120.5 24.5h4h2q53 0 97 -15t76.5 -37.5t58 -63t42 -78.5t28.5 -99.5t18 -109.5t9.5 -124t4 -129t0.5 -138v-280q0 -111 -1.5 -177t-8 -161t-19.5 -151t-37.5 -121t-59.5 -100t-88 -58.5t-122 -23.5h-6 q-67 1 -119.5 25t-87 59t-58.5 100t-36.5 121t-19 150.5t-8 160.5t-1.5 176zM102 -26l532 1904h128l-536 -1904h-124zM210 614q-6 -346 30 -464q18 -66 55.5 -104.5t86.5 -41.5h10q52 0 92 38.5t60 107.5q36 118 30 464v628q6 346 -30 464q-19 67 -58 105t-90 41h-4 q-52 0 -92 -38.5t-60 -107.5q-36 -118 -30 -464v-628z" />
<glyph unicode="&#xd9;" horiz-adv-x="874" d="M102 390v1472h154v-1614q0 -50 9 -89.5t30.5 -74.5t63 -53.5t101.5 -16.5q116 3 162 66t46 168v1614h160v-1472q0 -118 -20.5 -194t-67.5 -119.5t-113 -60.5t-167 -16q-101 2 -165 18.5t-109.5 60t-64.5 118.5t-19 193zM306 2308h146l114 -172h-94z" />
<glyph unicode="&#xda;" horiz-adv-x="874" d="M102 390q0 -118 19 -193t64.5 -118.5t109.5 -60t165 -18.5q101 -1 167 16t113 60.5t67.5 119.5t20.5 194v1472h-160v-1614q0 -105 -46 -168t-162 -66q-60 -2 -101.5 16.5t-63 53.5t-30.5 74.5t-9 89.5v1614h-154v-1472zM306 2136l114 172h146l-166 -172h-94z" />
<glyph unicode="&#xdb;" horiz-adv-x="874" d="M102 390v1472h154v-1614q0 -50 9 -89.5t30.5 -74.5t63 -53.5t101.5 -16.5q116 3 162 66t46 168v1614h160v-1472q0 -118 -20.5 -194t-67.5 -119.5t-113 -60.5t-167 -16q-101 2 -165 18.5t-109.5 60t-64.5 118.5t-19 193zM130 2116l246 174h110l258 -174h-162l-150 124 l-136 -124h-166z" />
<glyph unicode="&#xdc;" horiz-adv-x="874" d="M102 390q0 -118 19 -193t64.5 -118.5t109.5 -60t165 -18.5q101 -1 167 16t113 60.5t67.5 119.5t20.5 194v1472h-160v-1614q0 -105 -46 -168t-162 -66q-60 -2 -101.5 16.5t-63 53.5t-30.5 74.5t-9 89.5v1614h-154v-1472zM258 2126q0 27 19.5 46.5t46.5 19.5t46.5 -19.5 t19.5 -46.5t-19.5 -46.5t-46.5 -19.5t-46.5 19.5t-19.5 46.5zM542 2126q0 27 19.5 46.5t46.5 19.5t46.5 -19.5t19.5 -46.5t-19.5 -46.5t-46.5 -19.5t-46.5 19.5t-19.5 46.5z" />
<glyph unicode="&#xde;" horiz-adv-x="402" d="M10 0v1856h156l-6 -1174h76q43 0 64.5 36t37.5 106q8 45 10 94q2 80 2 184v32v80q5 95 0 172q-3 89 -22.5 137.5t-65.5 48.5h-138v34h126q123 0 192.5 -132t67.5 -340q0 -124 -15 -215t-37 -140.5t-54.5 -78.5t-59 -36.5t-58.5 -7.5h-126v-656h-150z" />
<glyph unicode="&#xdf;" horiz-adv-x="982" d="M54 0v12q83 0 107.5 42.5t24.5 157.5v1378q0 130 85 202t249 72q152 0 242 -63t90 -199v-314q0 -104 -61.5 -176t-130.5 -72q34 -5 66.5 -15t69.5 -29.5t63.5 -45t44.5 -66.5t18 -90v-252v-300q0 -116 -116 -184q-108 -58 -258 -58h-50v12h50q102 0 155 53.5t53 150.5 v300v302q0 92 -57.5 149t-150.5 57q-89 0 -147.5 -63t-58.5 -149v-46v-550q0 -72 -36 -126q-66 -90 -252 -90zM342 884q16 69 74.5 111.5t133.5 42.5q42 0 72.5 19.5t46 54t22.5 72.5t7 84v402q0 80 -49.5 130t-128.5 50q-76 0 -127 -55.5t-51 -130.5v-336v-444z" />
<glyph unicode="&#xe0;" d="M30 0l220 1858h246l228 -1858h-86h-68l-52 440h-282l-50 -440h-24h-132zM236 450h282l-142 1230zM252 2166h146l114 -172h-94z" />
<glyph unicode="&#xe1;" d="M30 0h132h24l50 440h282l52 -440h68h86l-228 1858h-246zM236 450l140 1230l142 -1230h-282zM252 1994l114 172h146l-166 -172h-94z" />
<glyph unicode="&#xe2;" d="M30 0l220 1858h246l228 -1858h-86h-68l-52 440h-282l-50 -440h-24h-132zM74 1974l246 174h110l258 -174h-162l-150 124l-136 -124h-166zM236 450h282l-142 1230z" />
<glyph unicode="&#xe3;" d="M30 0h132h24l50 440h282l52 -440h68h86l-228 1858h-246zM140 1964q0 55 38.5 94.5t93.5 39.5q45 0 73.5 -17t38.5 -37t27.5 -37t42.5 -17q22 0 37 17.5t20 35.5t5 33h108q0 -64 -37.5 -109t-98.5 -45q-31 0 -54 11t-36 26.5t-24.5 31t-26 26.5t-33.5 11q-25 0 -41.5 -22 t-16.5 -42h-116zM236 450l140 1230l142 -1230h-282z" />
<glyph unicode="&#xe4;" d="M30 0h132h24l50 440h282l52 -440h68h86l-228 1858h-246zM174 1984q0 27 19.5 46.5t46.5 19.5t46.5 -19.5t19.5 -46.5t-19.5 -46.5t-46.5 -19.5t-46.5 19.5t-19.5 46.5zM236 450l140 1230l142 -1230h-282zM458 1984q0 27 19.5 46.5t46.5 19.5t46.5 -19.5t19.5 -46.5 t-19.5 -46.5t-46.5 -19.5t-46.5 19.5t-19.5 46.5z" />
<glyph unicode="&#xe5;" d="M30 0l220 1858h246l228 -1858h-86h-68l-52 440h-282l-50 -440h-24h-132zM128 2026q0 105 74.5 179.5t179.5 74.5t179.5 -74.5t74.5 -179.5t-74.5 -179.5t-179.5 -74.5t-179.5 74.5t-74.5 179.5zM218 2026q0 -68 48 -116t116 -48t116 48t48 116t-48 116t-116 48t-116 -48 t-48 -116zM236 450h282l-142 1230z" />
<glyph unicode="&#xe6;" horiz-adv-x="880" d="M10 0l220 1858h242l230 -1858h-84h-68l-52 440h-282l-50 -440h-26h-130zM216 450h282l-142 1230zM408 1858l628 -2v-8h-560l112 -892h448v-20h-448l114 -926h334v-10h-400l-56 466z" />
<glyph unicode="&#xe7;" horiz-adv-x="816" d="M102 786v278q0 111 1.5 177.5t8 161.5t19.5 151.5t37.5 122t59.5 100.5t88 59t122 24q177 0 254.5 -107.5t77.5 -330.5v-72h-154v38q-1 194 -19.5 293t-54 133t-104.5 34q-52 0 -92 -38t-60 -106q-36 -122 -30 -466v-626q-6 -344 30 -466q20 -69 60 -107.5t92 -38.5 q43 0 72.5 18.5t55 67.5t38 144.5t12.5 239.5h154v-44q0 -210 -70.5 -316.5t-227.5 -113.5l-42 -64q54 0 85 -20.5t31 -57.5q0 -56 -33.5 -77t-92.5 -21q-130 0 -130 88v16h82q0 -28 2 -43t13.5 -28t34.5 -13q21 0 35 14t17.5 33.5t0.5 39t-18 33.5t-37 14h-82l68 86 q-62 4 -110 30.5t-80 62.5t-54 100t-33.5 120t-18 148t-7.5 157t-1 172z" />
<glyph unicode="&#xe8;" horiz-adv-x="656" d="M102 1856h476v-8h-320v-870h320v-10h-320v-958h320v-10h-474zM198 2166h146l114 -172h-94z" />
<glyph unicode="&#xe9;" horiz-adv-x="656" d="M102 1856l2 -1856h474v10h-320v958h320v10h-320v870h320v8h-476zM198 1994l114 172h146l-166 -172h-94z" />
<glyph unicode="&#xea;" horiz-adv-x="656" d="M22 1974l246 174h110l258 -174h-162l-150 124l-136 -124h-166zM102 1856h476v-8h-320v-870h320v-10h-320v-958h320v-10h-474z" />
<glyph unicode="&#xeb;" horiz-adv-x="656" d="M102 1856l2 -1856h474v10h-320v958h320v10h-320v870h320v8h-476zM120 1984q0 27 19.5 46.5t46.5 19.5t46.5 -19.5t19.5 -46.5t-19.5 -46.5t-46.5 -19.5t-46.5 19.5t-19.5 46.5zM404 1984q0 27 19.5 46.5t46.5 19.5t46.5 -19.5t19.5 -46.5t-19.5 -46.5t-46.5 -19.5 t-46.5 19.5t-19.5 46.5z" />
<glyph unicode="&#xec;" horiz-adv-x="376" d="M58 2166h146l114 -172h-94zM102 0v1856h156v-1856h-156z" />
<glyph unicode="&#xed;" horiz-adv-x="376" d="M58 1994l114 172h146l-166 -172h-94zM102 0h156v1856h-156v-1856z" />
<glyph unicode="&#xee;" horiz-adv-x="376" d="M-118 1974l246 174h110l258 -174h-162l-150 124l-136 -124h-166zM102 0v1856h156v-1856h-156z" />
<glyph unicode="&#xef;" horiz-adv-x="376" d="M-20 1984q0 27 19.5 46.5t46.5 19.5t46.5 -19.5t19.5 -46.5t-19.5 -46.5t-46.5 -19.5t-46.5 19.5t-19.5 46.5zM102 0h156v1856h-156v-1856zM264 1984q0 27 19.5 46.5t46.5 19.5t46.5 -19.5t19.5 -46.5t-19.5 -46.5t-46.5 -19.5t-46.5 19.5t-19.5 46.5z" />
<glyph unicode="&#xf0;" horiz-adv-x="470" d="M-36 922v66h332v-66h-332zM24 0v1856h134h98q135 -3 204 -54q148 -136 148 -866q0 -326 -20 -511.5t-62 -286.5q-42 -87 -98 -112.5t-160 -25.5h-244zM180 10h34h46q63 0 92.5 25t53.5 113q27 86 37 264t13 534q0 315 -12.5 494.5t-43.5 265.5q-27 88 -60 115t-100 27 h-60v-1838z" />
<glyph unicode="&#xf1;" horiz-adv-x="732" d="M102 0h156v1666l246 -1068v-598h154v1856h-154v-1078l-246 1080l-156 -2v-1856zM124 1964q0 55 38.5 94.5t93.5 39.5q45 0 73.5 -17t38.5 -37t27.5 -37t42.5 -17q22 0 37 17.5t20 35.5t5 33h108q0 -64 -37.5 -109t-98.5 -45q-31 0 -54 11t-36 26.5t-24.5 31t-26 26.5 t-33.5 11q-25 0 -41.5 -22t-16.5 -42h-116z" />
<glyph unicode="&#xf2;" horiz-adv-x="830" d="M36 932q0 180 16.5 328t46 248t66 173t81 113.5t86.5 59t86 18.5t86 -18.5t86 -59t80.5 -113.5t65.5 -173t45.5 -248t16.5 -328q0 -215 -24 -383t-61.5 -270t-89 -168.5t-101.5 -91.5t-104 -25t-104 25t-102 91.5t-90 168.5t-62 270t-24 383zM194 894q0 -443 59.5 -666.5 t164.5 -223.5q104 0 160 222t56 668v38v40q0 446 -56 669t-160 223q-105 0 -164.5 -224.5t-59.5 -667.5v-40v-38zM284 2166h146l114 -172h-94z" />
<glyph unicode="&#xf3;" horiz-adv-x="830" d="M36 932q0 -215 24 -383t62 -270t90 -168.5t102 -91.5t104 -25t104 25t101.5 91.5t89 168.5t61.5 270t24 383q0 180 -16.5 328t-45.5 248t-65.5 173t-80.5 113.5t-86 59t-86 18.5t-86 -18.5t-86.5 -59t-81 -113.5t-66 -173t-46 -248t-16.5 -328zM194 894v38v40 q0 443 59.5 667.5t164.5 224.5q104 0 160 -223t56 -669v-40v-38q0 -446 -56 -668t-160 -222q-105 0 -164.5 223.5t-59.5 666.5zM284 1994l114 172h146l-166 -172h-94z" />
<glyph unicode="&#xf4;" horiz-adv-x="830" d="M36 932q0 180 16.5 328t46 248t66 173t81 113.5t86.5 59t86 18.5t86 -18.5t86 -59t80.5 -113.5t65.5 -173t45.5 -248t16.5 -328q0 -215 -24 -383t-61.5 -270t-89 -168.5t-101.5 -91.5t-104 -25t-104 25t-102 91.5t-90 168.5t-62 270t-24 383zM108 1974l246 174h110 l258 -174h-162l-150 124l-136 -124h-166zM194 894q0 -443 59.5 -666.5t164.5 -223.5q104 0 160 222t56 668v38v40q0 446 -56 669t-160 223q-105 0 -164.5 -224.5t-59.5 -667.5v-40v-38z" />
<glyph unicode="&#xf5;" horiz-adv-x="830" d="M36 932q0 -215 24 -383t62 -270t90 -168.5t102 -91.5t104 -25t104 25t101.5 91.5t89 168.5t61.5 270t24 383q0 180 -16.5 328t-45.5 248t-65.5 173t-80.5 113.5t-86 59t-86 18.5t-86 -18.5t-86.5 -59t-81 -113.5t-66 -173t-46 -248t-16.5 -328zM174 1964q0 55 38.5 94.5 t93.5 39.5q45 0 73.5 -17t38.5 -37t27.5 -37t42.5 -17q22 0 37 17.5t20 35.5t5 33h108q0 -64 -37.5 -109t-98.5 -45q-31 0 -54 11t-36 26.5t-24.5 31t-26 26.5t-33.5 11q-25 0 -41.5 -22t-16.5 -42h-116zM194 894v38v40q0 443 59.5 667.5t164.5 224.5q104 0 160 -223 t56 -669v-40v-38q0 -446 -56 -668t-160 -222q-105 0 -164.5 223.5t-59.5 666.5z" />
<glyph unicode="&#xf6;" horiz-adv-x="830" d="M36 932q0 -215 24 -383t62 -270t90 -168.5t102 -91.5t104 -25t104 25t101.5 91.5t89 168.5t61.5 270t24 383q0 180 -16.5 328t-45.5 248t-65.5 173t-80.5 113.5t-86 59t-86 18.5t-86 -18.5t-86.5 -59t-81 -113.5t-66 -173t-46 -248t-16.5 -328zM194 894v38v40 q0 443 59.5 667.5t164.5 224.5q104 0 160 -223t56 -669v-40v-38q0 -446 -56 -668t-160 -222q-105 0 -164.5 223.5t-59.5 666.5zM206 1984q0 27 19.5 46.5t46.5 19.5t46.5 -19.5t19.5 -46.5t-19.5 -46.5t-46.5 -19.5t-46.5 19.5t-19.5 46.5zM490 1984q0 27 19.5 46.5 t46.5 19.5t46.5 -19.5t19.5 -46.5t-19.5 -46.5t-46.5 -19.5t-46.5 19.5t-19.5 46.5z" />
<glyph unicode="&#xf7;" horiz-adv-x="778" d="M102 574v96h746v-96h-746zM380 352q0 42 28 72q30 32 72 32t72 -32q32 -30 32 -72t-32 -72q-30 -28 -72 -28t-72 28q-28 30 -28 72zM380 892q0 42 28 70q30 32 72 32t72 -32q32 -28 32 -70t-32 -70q-30 -30 -72 -30t-72 30q-28 28 -28 70z" />
<glyph unicode="&#xf9;" horiz-adv-x="874" d="M102 390v1472h154v-1614q0 -50 9 -89.5t30.5 -74.5t63 -53.5t101.5 -16.5q116 3 162 66t46 168v1614h160v-1472q0 -118 -20.5 -194t-67.5 -119.5t-113 -60.5t-167 -16q-101 2 -165 18.5t-109.5 60t-64.5 118.5t-19 193zM306 2166h146l114 -172h-94z" />
<glyph unicode="&#xfa;" horiz-adv-x="874" d="M102 390q0 -118 19 -193t64.5 -118.5t109.5 -60t165 -18.5q101 -1 167 16t113 60.5t67.5 119.5t20.5 194v1472h-160v-1614q0 -105 -46 -168t-162 -66q-60 -2 -101.5 16.5t-63 53.5t-30.5 74.5t-9 89.5v1614h-154v-1472zM306 1994l114 172h146l-166 -172h-94z" />
<glyph unicode="&#xfb;" horiz-adv-x="874" d="M102 390v1472h154v-1614q0 -50 9 -89.5t30.5 -74.5t63 -53.5t101.5 -16.5q116 3 162 66t46 168v1614h160v-1472q0 -118 -20.5 -194t-67.5 -119.5t-113 -60.5t-167 -16q-101 2 -165 18.5t-109.5 60t-64.5 118.5t-19 193zM130 1974l246 174h110l258 -174h-162l-150 124 l-136 -124h-166z" />
<glyph unicode="&#xfc;" horiz-adv-x="874" d="M102 390q0 -118 19 -193t64.5 -118.5t109.5 -60t165 -18.5q101 -1 167 16t113 60.5t67.5 119.5t20.5 194v1472h-160v-1614q0 -105 -46 -168t-162 -66q-60 -2 -101.5 16.5t-63 53.5t-30.5 74.5t-9 89.5v1614h-154v-1472zM228 1984q0 27 19.5 46.5t46.5 19.5t46.5 -19.5 t19.5 -46.5t-19.5 -46.5t-46.5 -19.5t-46.5 19.5t-19.5 46.5zM512 1984q0 27 19.5 46.5t46.5 19.5t46.5 -19.5t19.5 -46.5t-19.5 -46.5t-46.5 -19.5t-46.5 19.5t-19.5 46.5z" />
<glyph unicode="&#xfe;" horiz-adv-x="402" d="M10 0v1856h156l-6 -1174h76q43 0 64.5 36t37.5 106q8 45 10 94q2 80 2 184v32v80q5 95 0 172q-3 89 -22.5 137.5t-65.5 48.5h-138v34h126q123 0 192.5 -132t67.5 -340q0 -124 -15 -215t-37 -140.5t-54.5 -78.5t-59 -36.5t-58.5 -7.5h-126v-656h-150z" />
<glyph unicode="&#xff;" horiz-adv-x="660" d="M30 1856l226 -954v-902h156l-2 904l228 954h-156l-148 -890l-148 890h-70zM122 1984q0 27 19.5 46.5t46.5 19.5t46.5 -19.5t19.5 -46.5t-19.5 -46.5t-46.5 -19.5t-46.5 19.5t-19.5 46.5zM406 1984q0 27 19.5 46.5t46.5 19.5t46.5 -19.5t19.5 -46.5t-19.5 -46.5 t-46.5 -19.5t-46.5 19.5t-19.5 46.5z" />
<glyph unicode="&#x152;" horiz-adv-x="1532" d="M90 932q0 180 16.5 328t46 248t66 173t81 113.5t86.5 59t86 18.5t86 -18.5t86 -59t80.5 -113.5t65.5 -173t45.5 -248t16.5 -328q0 -215 -24 -383t-61.5 -270t-89 -168.5t-101.5 -91.5t-104 -25t-104 25t-102 91.5t-90 168.5t-62 270t-24 383zM248 894q0 -443 59.5 -666.5 t164.5 -223.5q104 0 160 222t56 668v38v40q0 446 -56 669t-160 223q-105 0 -164.5 -224.5t-59.5 -667.5v-40v-38zM1024 1856h476v-8h-320v-870h320v-10h-320v-958h320v-10h-474z" />
<glyph unicode="&#x153;" horiz-adv-x="1486" d="M36 932q0 180 16.5 328t46 248t66 173t81 113.5t86.5 59t86 18.5t86 -18.5t86 -59t80.5 -113.5t65.5 -173t45.5 -248t16.5 -328q0 -215 -24 -383t-61.5 -270t-89 -168.5t-101.5 -91.5t-104 -25t-104 25t-102 91.5t-90 168.5t-62 270t-24 383zM194 894q0 -443 59.5 -666.5 t164.5 -223.5q104 0 160 222t56 668v38v40q0 446 -56 669t-160 223q-105 0 -164.5 -224.5t-59.5 -667.5v-40v-38zM932 1856h476v-8h-320v-870h320v-10h-320v-958h320v-10h-474z" />
<glyph unicode="&#x178;" horiz-adv-x="660" d="M30 1856l226 -954v-902h156l-2 904l228 954h-156l-148 -890l-148 890h-70zM122 2126q0 27 19.5 46.5t46.5 19.5t46.5 -19.5t19.5 -46.5t-19.5 -46.5t-46.5 -19.5t-46.5 19.5t-19.5 46.5zM406 2126q0 27 19.5 46.5t46.5 19.5t46.5 -19.5t19.5 -46.5t-19.5 -46.5 t-46.5 -19.5t-46.5 19.5t-19.5 46.5z" />
<glyph unicode="&#x2c6;" horiz-adv-x="708" d="M26 1974l246 174h110l258 -174h-162l-150 124l-136 -124h-166z" />
<glyph unicode="&#x2dc;" horiz-adv-x="766" d="M184 1964q0 55 38.5 94.5t93.5 39.5q45 0 73.5 -17t38.5 -37t27.5 -37t42.5 -17q22 0 37 17.5t20 35.5t5 33h108q0 -64 -37.5 -109t-98.5 -45q-31 0 -54 11t-36 26.5t-24.5 31t-26 26.5t-33.5 11q-25 0 -41.5 -22t-16.5 -42h-116z" />
<glyph unicode="&#x2000;" horiz-adv-x="1154" />
<glyph unicode="&#x2001;" horiz-adv-x="2308" />
<glyph unicode="&#x2002;" horiz-adv-x="1154" />
<glyph unicode="&#x2003;" horiz-adv-x="2308" />
<glyph unicode="&#x2004;" horiz-adv-x="769" />
<glyph unicode="&#x2005;" horiz-adv-x="577" />
<glyph unicode="&#x2006;" horiz-adv-x="384" />
<glyph unicode="&#x2007;" horiz-adv-x="384" />
<glyph unicode="&#x2008;" horiz-adv-x="288" />
<glyph unicode="&#x2009;" horiz-adv-x="461" />
<glyph unicode="&#x200a;" horiz-adv-x="128" />
<glyph unicode="&#x2010;" horiz-adv-x="544" d="M94 566v124h396v-124h-396z" />
<glyph unicode="&#x2011;" horiz-adv-x="544" d="M94 566v124h396v-124h-396z" />
<glyph unicode="&#x2012;" horiz-adv-x="544" d="M94 566v124h396v-124h-396z" />
<glyph unicode="&#x2013;" horiz-adv-x="1172" d="M94 566v124h1024v-124h-1024z" />
<glyph unicode="&#x2014;" horiz-adv-x="2196" d="M94 566v124h2048v-124h-2048z" />
<glyph unicode="&#x202f;" horiz-adv-x="461" />
<glyph unicode="&#x205f;" horiz-adv-x="577" />
<glyph unicode="&#x25fc;" horiz-adv-x="1860" d="M0 0v1860h1860v-1860h-1860z" />
</font>
</defs>
</svg>
